HIERARCHY
ROOT Hips
{
 OFFSET 0.000000 0.000000 0.000000
 CHANNELS 6 Xposition Yposition Zposition Yrotation Xrotation Zrotation
 JOINT Chest
 {
  OFFSET 0.000000 11.395451 -0.039534
  CHANNELS 3 Yrotation Xrotation Zrotation
  JOINT Chest2
  {
   OFFSET 0.000000 9.398669 0.071813
   CHANNELS 3 Yrotation Xrotation Zrotation
   JOINT Chest3
   {
    OFFSET 0.000000 8.489801 0.000000
    CHANNELS 3 Yrotation Xrotation Zrotation
    JOINT Chest4
    {
     OFFSET 0.000000 8.489801 0.000000
     CHANNELS 3 Yrotation Xrotation Zrotation
     JOINT Neck
     {
      OFFSET 0.000000 12.404889 0.000000
      CHANNELS 3 Yrotation Xrotation Zrotation
      JOINT Head
      {
       OFFSET 0.000000 8.903270 0.092239
       CHANNELS 3 Yrotation Xrotation Zrotation
       End Site
       {
        OFFSET 0.000000 17.592497 0.007158
       }
      }
     }
     JOINT RightCollar
     {
      OFFSET -3.196775 6.966722 0.000000
      CHANNELS 3 Yrotation Xrotation Zrotation
      JOINT RightShoulder
      {
       OFFSET -15.955896 0.000000 0.000000
       CHANNELS 3 Yrotation Xrotation Zrotation
       JOINT RightElbow
       {
        OFFSET -24.792472 0.000000 0.000000
        CHANNELS 3 Yrotation Xrotation Zrotation
        JOINT RightWrist
        {
         OFFSET -20.900115 0.000000 0.025002
         CHANNELS 3 Yrotation Xrotation Zrotation
         End Site
         {
          OFFSET -16.056692 0.000000 0.000000
         }
        }
       }
      }
     }
     JOINT LeftCollar
     {
      OFFSET 3.196775 6.966722 0.000000
      CHANNELS 3 Yrotation Xrotation Zrotation
      JOINT LeftShoulder
      {
       OFFSET 15.955896 0.000000 0.000000
       CHANNELS 3 Yrotation Xrotation Zrotation
       JOINT LeftElbow
       {
        OFFSET 24.792472 0.000000 0.000000
        CHANNELS 3 Yrotation Xrotation Zrotation
        JOINT LeftWrist
        {
         OFFSET 20.900115 0.000000 0.025002
         CHANNELS 3 Yrotation Xrotation Zrotation
         End Site
         {
          OFFSET 16.056692 0.000000 0.000000
         }
        }
       }
      }
     }
    }
   }
  }
 }
 JOINT RightHip
 {
  OFFSET -9.568995 0.193718 0.019767
  CHANNELS 3 Yrotation Xrotation Zrotation
  JOINT RightKnee
  {
   OFFSET 0.000000 -56.649296 0.015402
   CHANNELS 3 Yrotation Xrotation Zrotation
   JOINT RightAnkle
   {
    OFFSET 0.000000 -41.365147 0.021264
    CHANNELS 3 Yrotation Xrotation Zrotation
    JOINT RightToe
    {
     OFFSET 0.000000 -7.465940 17.672538
     CHANNELS 3 Yrotation Xrotation Zrotation
     End Site
     {
      OFFSET 0.000000 -1.736315 7.837145
     }
    }
   }
  }
 }
 JOINT LeftHip
 {
  OFFSET 9.568995 0.193718 0.019767
  CHANNELS 3 Yrotation Xrotation Zrotation
  JOINT LeftKnee
  {
   OFFSET 0.000000 -56.649296 0.015402
   CHANNELS 3 Yrotation Xrotation Zrotation
   JOINT LeftAnkle
   {
    OFFSET 0.000000 -41.365147 0.021264
    CHANNELS 3 Yrotation Xrotation Zrotation
    JOINT LeftToe
    {
     OFFSET 0.000000 -7.465940 17.672538
     CHANNELS 3 Yrotation Xrotation Zrotation
     End Site
     {
      OFFSET 0.000000 -1.736315 7.837145
     }
    }
   }
  }
 }
}
MOTION
Frames: 7
Frame Time: 0.016667
30.020503 106.456965 273.300713 -179.484222 -8.077324 -1.612779 -10.280056 4.883396 -1.275046 -4.551170 2.198250 -0.457722 -4.551170 2.198250 -0.457722 -3.411314 1.652206 -0.326894 -3.700247 16.145450 0.223720 -6.963309 -6.102764 1.751048 -7.838141 2.198787 6.660701 -0.026413 -8.010352 81.255803 6.201498 -8.876217 0.899651 -4.543110 -4.187564 6.114522 -12.685505 4.858910 -3.162932 -14.298227 -10.545344 -79.481827 -3.364279 -4.961117 -2.384525 4.923821 -3.714598 -1.045512 15.446309 12.277958 4.485632 -1.946688 1.082783 0.033140 -36.732369 -7.670153 1.846407 0.000000 0.000000 0.000000 10.609607 11.631291 2.062261 0.784744 8.178973 0.022559 -29.262159 -13.991111 7.772155 0.000000 0.000000 0.000000
29.997669 106.437073 273.387891 -179.421578 -8.077505 -1.590833 -10.232238 4.859809 -1.271257 -4.530083 2.187559 -0.457072 -4.530083 2.187560 -0.457071 -3.395514 1.644166 -0.326561 -3.735491 16.153544 0.224929 -7.028918 -6.085927 1.765458 -7.826339 2.243449 6.680016 -0.178426 -7.815450 81.272770 5.889673 -10.042463 0.981103 -4.854157 -4.190233 7.509130 -12.614199 4.849832 -3.182127 -14.281801 -10.397133 -79.481639 -3.194574 -5.052308 -2.345727 4.946774 -3.718713 -1.118645 15.427403 12.204705 4.387673 -2.041850 1.140046 0.172796 -36.708592 -7.684716 1.728627 0.000000 -0.000000 0.000000 10.485892 11.544867 1.987636 0.902169 8.270834 0.044426 -29.330568 -13.977060 7.809779 0.000000 0.000000 0.000000
29.974835 106.417181 273.475068 -179.358934 -8.077710 -1.568887 -10.184414 4.836239 -1.267516 -4.508993 2.176876 -0.456438 -4.508992 2.176877 -0.456438 -3.379713 1.636132 -0.326240 -3.770742 16.161623 0.226126 -7.094528 -6.069094 1.779841 -7.814551 2.288053 6.699483 -0.330519 -7.620652 81.289884 5.575474 -11.208256 1.073897 -5.191743 -4.173416 8.899278 -12.542868 4.840872 -3.201302 -14.265512 -10.248922 -79.480756 -3.025003 -5.143503 -2.306697 4.970169 -3.722418 -1.191689 15.408668 12.131525 4.289686 -2.136999 1.197537 0.312273 -36.684807 -7.699306 1.610846 0.000000 0.000000 0.000000 10.362364 11.458307 1.913115 1.019692 8.362601 0.066598 -29.398969 -13.962986 7.847384 -0.000000 -0.000000 0.000000
29.952729 106.402475 273.557393 -179.305671 -8.082073 -1.553654 -10.149747 4.817074 -1.262898 -4.493734 2.168166 -0.455176 -4.493734 2.168166 -0.455176 -3.368285 1.629576 -0.325413 -3.789554 16.167878 0.226501 -7.129354 -6.056509 1.786908 -7.801941 2.319488 6.719549 -0.498018 -7.415892 81.309226 5.342436 -12.086795 1.158085 -5.450222 -4.155647 9.869735 -12.468020 4.833249 -3.219668 -14.241587 -10.108059 -79.474465 -2.826836 -5.261762 -2.248802 4.991179 -3.723957 -1.253503 15.414129 12.065548 4.211686 -2.243448 1.254128 0.430087 -36.659004 -7.707424 1.514352 0.000000 0.000000 0.000000 10.258061 11.382992 1.851751 1.116405 8.444127 0.085267 -29.455320 -13.949025 7.883533 0.000000 0.000000 0.000000
29.932167 106.395775 273.631548 -179.262825 -8.092161 -1.549540 -10.134840 4.804477 -1.256506 -4.487237 2.162388 -0.452773 -4.487237 2.162388 -0.452773 -3.363428 1.625220 -0.323676 -3.784291 16.170562 0.224976 -7.118900 -6.051890 1.782031 -7.786927 2.328470 6.740698 -0.696311 -7.187281 81.332244 5.237051 -12.505418 1.215658 -5.564678 -4.119602 10.210277 -12.384955 4.826909 -3.237508 -14.204075 -9.976748 -79.461827 -2.587459 -5.434537 -2.164638 5.008866 -3.721419 -1.297798 15.467020 12.010122 4.168374 -2.384230 1.309423 0.512928 -36.626864 -7.704812 1.453197 0.000000 -0.000000 0.000000 10.179899 11.324211 1.810985 1.177972 8.511345 0.098060 -29.491310 -13.936759 7.919296 0.000000 0.000000 -0.000000
29.912333 106.394261 273.700851 -179.229358 -8.106383 -1.552147 -10.133100 4.796261 -1.249194 -4.486576 2.158574 -0.449726 -4.486577 2.158573 -0.449726 -3.362947 1.622336 -0.321421 -3.762578 16.171448 0.222654 -7.077660 -6.051488 1.769886 -7.771088 2.324326 6.762298 -0.909924 -6.948697 81.356577 5.215466 -12.637190 1.253698 -5.573767 -4.102897 10.136302 -12.298381 4.821866 -3.254528 -14.158852 -9.852825 -79.444080 -2.319689 -5.634755 -2.062449 5.023921 -3.716873 -1.330845 15.543946 11.961866 4.145010 -2.536287 1.363756 0.574092 -36.592729 -7.695698 1.413328 0.000000 0.000000 -0.000000 10.120808 11.276796 1.783285 1.218663 8.568399 0.107106 -29.515256 -13.924620 7.953613 0.000000 0.000000 0.000000
29.891507 106.394654 273.770400 -179.211542 -8.124134 -1.554980 -10.137908 4.790282 -1.242644 -4.488805 2.155787 -0.446901 -4.488805 2.155787 -0.446901 -3.364632 1.620227 -0.319315 -3.730853 16.174019 0.222008 -7.018338 -6.048351 1.757173 -7.758338 2.321875 6.783067 -1.107908 -6.731729 81.378659 5.226621 -12.714050 1.286747 -5.517103 -4.214100 9.874276 -12.218924 4.819418 -3.269065 -14.115859 -9.737088 -79.419964 -2.032942 -5.807769 -1.946939 5.035895 -3.714532 -1.360416 15.598983 11.917848 4.117488 -2.641792 1.417025 0.632076 -36.567591 -7.686301 1.373877 0.000000 0.000000 0.000000 10.078825 11.236480 1.759225 1.260463 8.617465 0.115317 -29.540059 -13.908021 7.981851 0.000000 0.000000 0.000000
